<svg version="1.1" id="Layer_1" xmlns="http://www.w3.org/2000/svg" xmlns:xlink="http://www.w3.org/1999/xlink" x="0px" y="0px"
	 width="100%" viewBox="0 0 500 500" enable-background="new 0 0 500 500" xml:space="preserve">
<path fill="#E5BE77" opacity="1.000000" stroke="none" 
	d="
M501.000000,310.000000 
	C501.000000,329.687561 501.000000,349.375122 500.531342,369.531311 
	C480.368713,370.030273 460.674774,370.060577 440.513733,370.052429 
	C428.255280,370.009338 416.463837,369.986542 404.672455,370.003510 
	C373.453552,370.048401 342.234650,370.110535 310.550354,370.098450 
	C270.384613,370.076019 230.684326,370.120880 190.520905,370.096863 
	C148.440735,370.018616 106.823669,369.996155 65.206688,370.046448 
	C63.477036,370.048523 61.748199,370.731049 59.633385,371.036255 
	C54.440102,370.650635 49.634449,370.085632 44.824356,370.044891 
	C30.217161,369.921112 15.608246,370.000031 1.000000,370.000000 
	C1.000000,350.312439 1.000000,330.624878 1.468657,310.468658 
	C168.291550,310.000000 334.645782,310.000000 501.000000,310.000000 
z"/>
<path fill="#FFD484" opacity="1.000000" stroke="none" 
	d="
M501.000000,309.531342 
	C334.645782,310.000000 168.291550,310.000000 1.468657,310.000000 
	C1.000000,290.312439 1.000000,270.624878 1.468657,250.468658 
	C21.620031,249.963089 41.302746,249.926178 61.452679,249.930038 
	C81.622108,249.951141 101.324326,249.931488 121.492249,249.948563 
	C144.969162,249.935410 167.980362,249.885513 191.456909,249.898987 
	C231.617630,249.920105 271.313019,249.877869 311.473450,249.904022 
	C331.616730,249.952576 351.294922,249.932739 371.442657,249.942337 
	C394.946289,249.944260 417.980408,249.916748 441.480530,249.931976 
	C461.631012,249.983124 481.315521,249.991562 501.000000,250.000000 
	C501.000000,269.687561 501.000000,289.375122 501.000000,309.531342 
z"/>
<path fill="#51993A" opacity="1.000000" stroke="none" 
	d="
M1.000000,121.000000 
	C1.000000,81.097443 1.000000,41.194878 1.000000,1.000000 
	C20.686596,1.000000 40.374641,1.000000 60.531342,1.468657 
	C61.000259,20.037252 61.084858,38.137905 60.931187,56.236534 
	C60.899620,59.954025 62.122051,61.098969 65.798180,61.066902 
	C84.228813,60.906147 102.661430,60.973064 121.555954,60.974030 
	C144.999420,61.015739 167.980270,61.043381 190.976929,61.039154 
	C190.992706,61.007286 190.928986,61.038891 190.954834,61.503975 
	C190.996094,81.654602 191.011505,101.340141 190.556274,121.016556 
	C167.052139,121.059143 144.018631,121.110870 120.520691,121.104401 
	C80.370842,121.030807 40.685421,121.015404 1.000000,121.000000 
z"/>
<path fill="#FFD484" opacity="1.000000" stroke="none" 
	d="
M371.000000,501.000000 
	C287.979095,501.000000 204.958206,501.000000 121.468658,500.531342 
	C121.008026,480.429962 121.016052,460.797241 121.486473,441.093750 
	C144.961166,440.959991 167.973465,440.897003 191.450714,440.904114 
	C231.615341,440.927490 271.315002,440.880798 311.477539,440.905457 
	C331.618896,441.039398 351.297394,441.101959 370.982910,441.622833 
	C370.993317,461.720764 370.996674,481.360382 371.000000,501.000000 
z"/>
<path fill="#51993A" opacity="1.000000" stroke="none" 
	d="
M441.000000,1.000000 
	C460.951263,1.000000 480.902557,1.000000 501.000000,1.000000 
	C501.000000,40.687450 501.000000,80.375069 500.531342,120.531342 
	C490.263092,121.000000 480.463440,120.987915 470.663879,121.002205 
	C437.447540,121.050636 404.231201,121.108406 370.548096,121.104553 
	C350.378632,121.039566 330.675903,121.032616 310.982544,120.555481 
	C311.018280,100.403160 311.044647,80.721024 311.039185,61.023060 
	C311.007294,61.007236 311.038910,61.071011 311.503906,61.045040 
	C331.615112,60.998993 351.261292,60.978916 371.381836,60.970154 
	C392.949066,60.987617 414.043030,60.882088 435.133942,61.090130 
	C439.579102,61.133976 441.181122,60.055733 441.109741,55.308437 
	C440.837708,37.209164 440.999969,19.103363 441.000000,1.000000 
z"/>
<path fill="#CC3833" opacity="1.000000" stroke="none" 
	d="
M371.014862,121.162605 
	C404.231201,121.108406 437.447540,121.050636 470.663879,121.002205 
	C480.463440,120.987915 490.263092,121.000000 500.531342,121.000000 
	C501.000000,143.687561 501.000000,166.375122 500.531342,189.531342 
	C480.373688,190.053726 460.684692,190.107437 440.530273,190.091827 
	C417.071869,190.030121 394.078857,190.037720 371.003906,190.116989 
	C370.921906,190.188644 370.756439,190.047119 370.832428,189.578339 
	C370.943909,166.460587 370.979401,143.811600 371.014862,121.162605 
z"/>
<path fill="#CC3833" opacity="1.000000" stroke="none" 
	d="
M1.000000,121.468658 
	C40.685421,121.015404 80.370842,121.030807 120.525177,121.560593 
	C121.077225,144.732361 121.160347,167.389740 121.168053,190.119324 
	C121.092636,190.191528 120.927208,190.064087 120.463486,190.036423 
	C100.334625,190.059555 80.669472,190.110352 60.538616,190.103546 
	C40.381939,190.030609 20.690969,190.015305 1.000000,190.000000 
	C1.000000,167.312439 1.000000,144.624878 1.000000,121.468658 
z"/>
<path fill="#E5BE77" opacity="1.000000" stroke="none" 
	d="
M371.468658,501.000000 
	C370.996674,481.360382 370.993317,461.720764 371.448792,441.554443 
	C394.931976,440.988220 417.956390,440.948669 441.449646,440.941315 
	C461.612335,440.982361 481.306183,440.991180 501.000000,441.000000 
	C501.000000,460.953857 501.000000,480.907684 501.000000,501.000000 
	C457.979187,501.000000 414.958252,501.000000 371.468658,501.000000 
z"/>
<path fill="#E5BE77" opacity="1.000000" stroke="none" 
	d="
M121.024078,441.164551 
	C121.016052,460.797241 121.008026,480.429962 121.000000,500.531342 
	C81.097450,501.000000 41.194897,501.000000 1.000000,501.000000 
	C1.000000,481.313416 1.000000,461.625366 1.468657,441.468689 
	C21.631273,440.969727 41.325233,440.939423 61.486244,440.947571 
	C81.643562,441.045502 101.333817,441.105011 121.024078,441.164551 
z"/>
<path fill="#CC3833" opacity="1.000000" stroke="none" 
	d="
M191.000000,1.000000 
	C230.687561,1.000000 270.375122,1.000000 310.531342,1.468657 
	C311.012970,21.648546 311.025940,41.359779 311.038910,61.071011 
	C311.038910,61.071011 311.007294,61.007236 310.564575,61.011482 
	C270.390869,61.023445 230.659927,61.031170 190.928986,61.038891 
	C190.928986,61.038891 190.992706,61.007286 190.988480,60.564560 
	C190.989502,40.414555 190.994751,20.707277 191.000000,1.000000 
z"/>
<path fill="#FFFFFF" opacity="1.000000" stroke="none" 
	d="
M501.000000,440.531311 
	C481.306183,440.991180 461.612335,440.982361 441.458344,440.481995 
	C440.992371,416.690582 440.986572,393.390747 440.980804,370.090881 
	C460.674774,370.060577 480.368713,370.030273 500.531342,370.000000 
	C501.000000,393.354218 501.000000,416.708466 501.000000,440.531311 
z"/>
<path fill="#FFFFFF" opacity="1.000000" stroke="none" 
	d="
M61.019188,440.909119 
	C41.325233,440.939423 21.631273,440.969727 1.468657,441.000000 
	C1.000000,417.645782 1.000000,394.291534 1.000000,370.468658 
	C15.608246,370.000031 30.217161,369.921112 44.824356,370.044891 
	C49.634449,370.085632 54.440102,370.650635 59.790569,371.418213 
	C60.082325,376.247314 59.521137,380.642761 59.643974,385.019043 
	C59.910633,394.519226 60.701591,404.005035 60.949818,413.505310 
	C61.188343,422.634277 61.012791,431.774078 61.019188,440.909119 
z"/>
<path fill="#B22E2C" opacity="1.000000" stroke="none" 
	d="
M190.531342,1.000000 
	C190.994751,20.707277 190.989502,40.414555 190.972687,60.596428 
	C167.980270,61.043381 144.999420,61.015739 121.521759,60.509899 
	C121.016632,40.354469 121.008316,20.677235 121.000000,1.000000 
	C144.020889,1.000000 167.041794,1.000000 190.531342,1.000000 
z"/>
<path fill="#5DB243" opacity="1.000000" stroke="none" 
	d="
M440.531342,1.000000 
	C440.999969,19.103363 440.837708,37.209164 441.109741,55.308437 
	C441.181122,60.055733 439.579102,61.133976 435.133942,61.090130 
	C414.043030,60.882088 392.949066,60.987617 371.415710,60.506088 
	C370.983490,40.353802 370.991730,20.676901 371.000000,1.000000 
	C394.020905,1.000000 417.041779,1.000000 440.531342,1.000000 
z"/>
<path fill="#5DB243" opacity="1.000000" stroke="none" 
	d="
M120.531342,1.000000 
	C121.008316,20.677235 121.016632,40.354469 121.059143,60.495834 
	C102.661430,60.973064 84.228813,60.906147 65.798180,61.066902 
	C62.122051,61.098969 60.899620,59.954025 60.931187,56.236534 
	C61.084858,38.137905 61.000259,20.037252 61.000000,1.468657 
	C80.687561,1.000000 100.375122,1.000000 120.531342,1.000000 
z"/>
<path fill="#B22E2C" opacity="1.000000" stroke="none" 
	d="
M370.531342,1.000000 
	C370.991730,20.676901 370.983490,40.353802 370.941345,60.494774 
	C351.261292,60.978916 331.615112,60.998993 311.503906,61.045040 
	C311.025940,41.359779 311.012970,21.648546 311.000000,1.468657 
	C330.687561,1.000000 350.375122,1.000000 370.531342,1.000000 
z"/>
<path fill="#51993A" opacity="1.000000" stroke="none" 
	d="
M440.995697,190.161163 
	C460.684692,190.107437 480.373688,190.053726 500.531342,190.000000 
	C501.000000,209.687561 501.000000,229.375122 501.000000,249.531342 
	C481.315521,249.991562 461.631012,249.983124 441.474487,249.474274 
	C441.000183,229.369629 440.997925,209.765396 440.995697,190.161163 
z"/>
<path fill="#51993A" opacity="1.000000" stroke="none" 
	d="
M1.000000,190.468658 
	C20.690969,190.015305 40.381939,190.030609 60.536968,190.559875 
	C60.995842,210.678970 60.990650,230.284119 60.985462,249.889267 
	C41.302746,249.926178 21.620031,249.963089 1.468657,250.000000 
	C1.000000,230.312439 1.000000,210.624878 1.000000,190.468658 
z"/>
<path fill="#4C091A" opacity="1.000000" stroke="none" 
	d="
M61.486244,440.947571 
	C61.012791,431.774078 61.188343,422.634277 60.949818,413.505310 
	C60.701591,404.005035 59.910633,394.519226 59.643974,385.019043 
	C59.521137,380.642761 60.082325,376.247314 60.176170,371.478577 
	C61.748199,370.731049 63.477036,370.048523 65.206688,370.046448 
	C106.823669,369.996155 148.440735,370.018616 190.525391,370.554535 
	C190.990585,394.332123 190.988174,417.583069 190.985764,440.834045 
	C167.973465,440.897003 144.961166,440.959991 121.486473,441.093750 
	C101.333817,441.105011 81.643562,441.045502 61.486244,440.947571 
z"/>
<path fill="#4C091A" opacity="1.000000" stroke="none" 
	d="
M440.513733,370.052429 
	C440.986572,393.390747 440.992371,416.690582 440.989502,440.449768 
	C417.956390,440.948669 394.931976,440.988220 371.441711,441.096130 
	C351.297394,441.101959 331.618896,441.039398 311.473389,440.447571 
	C311.009491,416.667480 311.012604,393.416626 311.015747,370.165771 
	C342.234650,370.110535 373.453552,370.048401 404.672455,370.003510 
	C416.463837,369.986542 428.255280,370.009338 440.513733,370.052429 
z"/>
<path fill="#660C22" opacity="1.000000" stroke="none" 
	d="
M310.550354,370.098450 
	C311.012604,393.416626 311.009491,416.667480 311.010498,440.376221 
	C271.315002,440.880798 231.615341,440.927490 191.450714,440.904114 
	C190.988174,417.583069 190.990585,394.332123 190.988510,370.623474 
	C230.684326,370.120880 270.384613,370.076019 310.550354,370.098450 
z"/>
<path fill="#51993A" opacity="1.000000" stroke="none" 
	d="
M311.008392,249.835632 
	C271.313019,249.877869 231.617630,249.920105 191.458862,249.441635 
	C190.934311,229.278137 190.873138,209.635330 190.898254,189.978775 
	C190.984512,189.965012 191.157104,189.992279 191.614288,189.997009 
	C231.661957,189.998596 271.252411,189.995438 310.929199,189.978638 
	C311.015533,189.964996 311.188080,189.992477 311.122833,190.457458 
	C311.041199,210.560181 311.024780,230.197906 311.008392,249.835632 
z"/>
<path fill="#7F1B0A" opacity="1.000000" stroke="none" 
	d="
M190.811981,189.992538 
	C190.873138,209.635330 190.934311,229.278137 190.993530,249.378281 
	C167.980362,249.885513 144.969162,249.935410 121.480377,249.488968 
	C120.977608,229.349792 120.952408,209.706940 120.927208,190.064087 
	C120.927208,190.064087 121.092636,190.191528 121.613724,190.102020 
	C145.027191,190.005859 167.919586,189.999191 190.811981,189.992538 
z"/>
<path fill="#FFFFFF" opacity="1.000000" stroke="none" 
	d="
M440.530273,190.091827 
	C440.997925,209.765396 441.000183,229.369629 441.008484,249.431549 
	C417.980408,249.916748 394.946289,249.944260 371.454651,249.482605 
	C371.026733,229.344086 371.056305,209.694717 371.085876,190.045334 
	C394.078857,190.037720 417.071869,190.030121 440.530273,190.091827 
z"/>
<path fill="#7F1B0A" opacity="1.000000" stroke="none" 
	d="
M371.003906,190.116989 
	C371.056305,209.694717 371.026733,229.344086 370.985168,249.453186 
	C351.294922,249.932739 331.616730,249.952576 311.473450,249.904022 
	C311.024780,230.197906 311.041199,210.560181 311.577820,190.458069 
	C331.650818,190.011490 351.203644,190.029312 370.756439,190.047119 
	C370.756439,190.047119 370.921906,190.188644 371.003906,190.116989 
z"/>
<path fill="#FFFFFF" opacity="1.000000" stroke="none" 
	d="
M120.463486,190.036423 
	C120.952408,209.706940 120.977608,229.349792 121.014679,249.452240 
	C101.324326,249.931488 81.622108,249.951141 61.452679,249.930038 
	C60.990650,230.284119 60.995842,210.678970 61.002678,190.617493 
	C80.669472,190.110352 100.334625,190.059555 120.463486,190.036423 
z"/>
<path fill="#B22E2C" opacity="1.000000" stroke="none" 
	d="
M190.954834,61.503975 
	C230.659927,61.031170 270.390869,61.023445 310.596436,61.027306 
	C311.044647,80.721024 311.018280,100.403160 310.998169,120.540314 
	C311.004425,120.995323 311.035217,120.964760 310.564270,120.977463 
	C270.383820,120.981689 230.674301,120.973221 190.980240,120.980042 
	C190.995712,120.995338 191.026917,121.025688 191.026917,121.025688 
	C191.011505,101.340141 190.996094,81.654602 190.954834,61.503975 
z"/>
<path fill="#B22E2C" opacity="1.000000" stroke="none" 
	d="
M190.898239,189.978775 
	C167.919586,189.999191 145.027191,190.005859 121.689140,190.029816 
	C121.160347,167.389740 121.077225,144.732361 120.989609,121.618790 
	C144.018631,121.110870 167.052139,121.059143 190.556274,121.016556 
	C191.026917,121.025688 190.995712,120.995338 190.992950,121.451012 
	C191.045837,144.601883 191.101471,167.297073 191.157104,189.992279 
	C191.157104,189.992279 190.984512,189.965012 190.898239,189.978775 
z"/>
<path fill="#B22E2C" opacity="1.000000" stroke="none" 
	d="
M370.832428,189.578354 
	C351.203644,190.029312 331.650818,190.011490 311.643066,189.993073 
	C311.188080,189.992477 311.015533,189.964996 310.986572,189.515411 
	C310.983459,166.365463 311.009338,143.665115 311.035217,120.964760 
	C311.035217,120.964760 311.004425,120.995323 310.988800,121.010498 
	C330.675903,121.032616 350.378632,121.039566 370.548096,121.104553 
	C370.979401,143.811600 370.943909,166.460587 370.832428,189.578354 
z"/>
<path fill="#5DB243" opacity="1.000000" stroke="none" 
	d="
M310.564270,120.977463 
	C311.009338,143.665115 310.983459,166.365463 310.900238,189.529053 
	C271.252411,189.995438 231.661957,189.998596 191.614288,189.997009 
	C191.101471,167.297073 191.045837,144.601883 190.977478,121.435715 
	C230.674301,120.973221 270.383820,120.981689 310.564270,120.977463 
z"/>
</svg>